# xmcd CD database file
#
# Track frame offsets:
#	150
#	1593
#	14988
#	27793
#	41595
#	55587
#	69459
#	82420
#	97223
#	110335
#	121562
#	136001
#	152255
#	165413
#	179188
#	195567
#	212529
#	223895
#
# Disc length: 3182 seconds
#
# Revision: 0
# Processed by: cddbd v1.5.2PL0 Copyright (c) Steve Scherf et al.
# Submitted via: CDex 1.51
#
DISCID=ef0c6c12
DTITLE=Catuaba com Amendoim - Ao Vivo Volume III
DYEAR=1900
DGENRE=Forró
TTITLE0=abertura
TTITLE1=rabo de foguete
TTITLE2=apagou o lampião
TTITLE3=chora sanfona
TTITLE4=dedo ligeiro
TTITLE5=jeito de amor
TTITLE6=mundo professor
TTITLE7=pecado proibido
TTITLE8=nada do fim
TTITLE9=peneirando
TTITLE10=vixe como tá bom
TTITLE11=menina mulher
TTITLE12=não acredito que você vai me deixar
TTITLE13=pétalas de rosa
TTITLE14=encanto
TTITLE15=a força do amor
TTITLE16=o bicho da minha prima
TTITLE17=viagra sob medida
EXTD=
EXTT0=
EXTT1=
EXTT2=
EXTT3=
EXTT4=
EXTT5=
EXTT6=
EXTT7=
EXTT8=
EXTT9=
EXTT10=
EXTT11=
EXTT12=
EXTT13=
EXTT14=
EXTT15=
EXTT16=
EXTT17=
PLAYORDER=
